<?xml version="1.0" standalone="no"?>
<!DOCTYPE svg PUBLIC "-//W3C//DTD SVG 20010904//EN"
 "http://www.w3.org/TR/2001/REC-SVG-20010904/DTD/svg10.dtd">
<svg version="1.0" xmlns="http://www.w3.org/2000/svg"
 width="16.000000pt" height="16.000000pt" viewBox="0 0 16.000000 16.000000"
 preserveAspectRatio="xMidYMid meet">
<metadata>
Created by potrace 1.11, written by Peter Selinger 2001-2013
</metadata>
<g transform="translate(0.000000,16.000000) scale(0.006154,-0.006154)"
fill="#000000" stroke="none">
<path d="M1370 2535 c19 -8 100 -39 180 -71 193 -75 424 -188 537 -262 108
-72 207 -167 234 -225 46 -103 9 -242 -118 -440 -41 -64 -138 -196 -184 -252
-10 -11 -54 -65 -100 -120 -46 -55 -86 -102 -89 -105 -16 -14 -204 -245 -258
-318 -33 -45 -76 -112 -94 -149 -30 -60 -33 -77 -33 -153 0 -106 16 -143 100
-226 45 -44 88 -74 161 -110 l99 -49 315 -3 c173 -2 330 0 348 3 44 8 98 58
113 103 9 28 12 298 12 1137 0 605 -3 1114 -7 1130 -12 46 -45 86 -90 106 -38
17 -76 19 -601 18 -489 0 -556 -2 -525 -14z"/>
<path d="M67 2503 c-57 -60 -54 -3 -52 -1213 1 -818 4 -1122 13 -1140 17 -37
33 -55 72 -79 34 -21 44 -21 507 -21 l471 0 -36 70 c-32 62 -36 78 -35 143 1
46 8 91 21 124 29 76 142 240 260 378 499 584 640 842 553 1013 -76 148 -461
347 -1086 559 -211 72 -614 193 -640 193 -12 0 -33 -12 -48 -27z"/>
</g>
</svg>
