<svg width="379" height="300" viewBox="0 0 379 300" xmlns="http://www.w3.org/2000/svg" xmlns:xlink="http://www.w3.org/1999/xlink" xmlns:figma="http://www.figma.com/figma/ns"><title>Icon - Career</title><desc>Created using Figma</desc><g transform="translate(395 -969)" figma:type="canvas"><mask id="a"><path d="M-395 969h379v300h-379V969z" fill="#FFF"/></mask><g figma:type="instance" mask="url(#a)"><use xlink:href="#b" transform="translate(-346 1149.54)" fill="#424953" figma:type="vector"/><use xlink:href="#c" transform="translate(-231.362 1225.59)" fill="#CF362E" figma:type="vector"/><use xlink:href="#d" transform="translate(-238.907 1176.3)" fill="#F03F35" figma:type="vector"/><use xlink:href="#e" transform="translate(-266.962 1155.47)" fill="#646C77" figma:type="vector"/><use xlink:href="#f" transform="translate(-284.755 1010.46)" fill="#9F7F75" figma:type="vector"/><use xlink:href="#g" transform="translate(-291.498 985.318)" fill="#F03F35" figma:type="vector"/><use xlink:href="#h" transform="translate(-303.716 1071.57)" fill="#D1372E" figma:type="vector"/><use xlink:href="#i" transform="translate(-236.54 973)" fill="#D1372E" figma:type="vector"/></g></g><defs><path id="b" d="M256.92 58.93l-1.037-.297c-15.155-4.106-20.29-8.05-27.035-10.64-23.92-9.196-30.147-15.83-31.74-18.96-.062-.11-.107-.235-.16-.343L196.75.65 140 0 83.24.65l-.196 28.04c-.05.108-.094.234-.152.343-1.592 3.13-7.82 9.764-31.75 18.96-6.744 2.59-11.874 6.533-27.03 10.64l-1.036.298C9.276 63.535 0 76.44 0 91.005v28.174h280V91.004c0-14.567-9.286-27.47-23.08-32.073z"/><path id="c" d="M41.983 0H8.745L0 43.128h50.723L41.983 0z"/><path id="d" d="M0 0l16.287 49.282h33.237L65.806 0H0z"/><path id="e" d="M121.73 28.537L117.75.344c-.448-1.778-3.024 3.953-4.67 3.177-1.63-.784-3.534-.793-5.18-.017L60.96 25.496 14.024 3.503c-1.646-.776-3.547-.767-5.184.018-1.643.777-3.642-4.593-4.094-2.815L.193 28.538c-.385 1.506-.188 3.104.545 4.467L18.952 66.89c.877 1.634 2.443 2.78 4.26 3.123.366.072.737.1 1.108.1 1.445 0 2.858-.516 3.972-1.48l32.67-28.238 32.67 28.237c1.11.966 2.524 1.48 3.974 1.48.375 0 .733-.027 1.11-.1 1.815-.342 3.38-1.488 4.258-3.122l18.214-33.885c.73-1.364.927-2.96.542-4.468z"/><path id="f" d="M78.755 0C35.26 0 0 34.058 0 85.678s48.78 99.125 78.755 99.125c29.968 0 78.758-47.504 78.758-99.125C157.513 34.058 122.25 0 78.755 0z"/><path id="g" d="M85.5 0C38.28 0 0 38.616 0 86.257v12.318h171.004V86.256C171.004 38.617 132.716 0 85.5 0z"/><path id="h" d="M189.316 12.318H6.106C2.732 12.318 0 9.558 0 6.155 0 2.752 2.733 0 6.105 0h183.21c3.374 0 6.102 2.752 6.102 6.155 0 3.402-2.728 6.163-6.1 6.163z"/><path id="i" d="M6.123 61.628c-3.372 0-6.105-2.752-6.11-6.154L0 12.327C0 9.98 1.315 7.842 3.39 6.805 3.946 6.525 17.128 0 30.538 0c13.41 0 26.587 6.524 27.14 6.805 2.077 1.037 3.4 3.176 3.4 5.513v42.36c0 3.403-2.736 6.156-6.118 6.156-3.365 0-6.102-2.753-6.102-6.155V16.37c-4.116-1.642-11.352-4.052-18.32-4.052-6.612 0-13.845 2.265-18.322 4.034l.013 39.112c0 3.412-2.734 6.164-6.107 6.164z"/></defs></svg>