<svg width="379" height="300" viewBox="0 0 379 300" xmlns="http://www.w3.org/2000/svg" xmlns:xlink="http://www.w3.org/1999/xlink" xmlns:figma="http://www.figma.com/figma/ns"><title>Icon - Education</title><desc>Created using Figma</desc><g transform="translate(-59 -969)" figma:type="canvas"><mask id="a"><path d="M59 969h379v300H59V969z" fill="#FFF"/></mask><g figma:type="frame" mask="url(#a)"><g figma:type="frame"><use xlink:href="#b" transform="translate(156.594 1006.03)" fill="#E2A437" figma:type="vector"/><use xlink:href="#c" transform="translate(113 1141.93)" fill="#DBAFA5" figma:type="vector"/></g><use xlink:href="#d" transform="translate(172.37 1008.74)" fill="#EAC6BB" figma:type="vector"/><use xlink:href="#e" transform="translate(113 1178.95)" fill="#F03F35" figma:type="vector"/><use xlink:href="#f" transform="translate(257.648 1016.32)" fill="#F6BB42" figma:type="vector"/><use xlink:href="#g" transform="translate(157.374 1006.03)" fill="#FFCE54" figma:type="vector"/><g figma:type="frame"><use xlink:href="#h" transform="translate(168.938 1007.73)" fill="#656D78" figma:type="vector"/><use xlink:href="#i" transform="translate(116.36 969)" fill="#434A54" figma:type="vector"/><use xlink:href="#j" transform="translate(364.296 997.494)" fill="#FFCE54" figma:type="vector"/><use xlink:href="#k" transform="translate(239.736 993.045)" fill="#FFCE54" figma:type="vector"/></g></g></g><defs><path id="b" d="M172.86 201.096H7.142S-36.052 0 90 0c126.054 0 82.86 201.096 82.86 201.096z"/><path id="c" d="M249.04 56.958l-1.005-.296c-14.693-3.973-19.666-7.78-26.198-10.28-23.2-8.887-29.23-15.298-30.77-18.32-.062-.114-.105-.227-.157-.34L190.72.627 135.706 0 80.69.627l-.19 27.095c-.048.113-.09.226-.148.34-1.542 3.023-7.58 9.433-30.777 18.32-6.54 2.5-11.51 6.307-26.197 10.28l-1.01.296C9 61.4 0 73.868 0 87.938v39.133H271.41V87.94c0-14.07-8.994-26.537-22.37-30.98z"/><path id="d" d="M152.678 82.79c0 49.883-47.283 95.778-76.34 95.778C47.284 178.568 0 132.673 0 82.788 0 32.91 34.177 0 76.337 0c42.156 0 76.34 32.91 76.34 82.79z"/><path id="e" d="M249.04 19.933l-1.005-.296c-14.693-3.973-19.666-7.78-26.198-10.28-9.106-3.485-15.56-6.595-20.152-9.27l-65.98 48.282L69.883 0c-4.59 2.683-11.093 5.82-20.307 9.357-6.54 2.5-11.51 6.307-26.197 10.28l-1.01.296C9 24.376 0 36.843 0 50.913v39.133h271.408V50.913c0-14.07-8.993-26.537-22.368-30.98z"/><path id="f" d="M78.036 94.32C74.89 56.53 63.322 17.984 31.95 0 22.886 9.504 0 40.21 0 40.21l78.036 54.11z"/><path id="g" d="M0 106.92c56.952-6.433 148.675-82.635 149.193-83.02C135.623 9.25 116.34 0 89.223 0 23.525 0 3.79 54.484 0 106.92z"/><path id="h" d="M147.856 0H5.922C2.652 0 0 2.66 0 5.95v47.624c0 2.73 1.845 5.11 4.474 5.772.992.253 24.8 6.133 72.482 6.133 47.683 0 71.368-5.88 72.347-6.134 2.625-.666 4.47-3.045 4.47-5.772V5.95c0-3.29-2.65-5.95-5.917-5.95z"/><path id="i" d="M255.654 23.915L131.34.105c-.73-.14-1.48-.14-2.213 0L4.813 23.915C2.02 24.45 0 26.907 0 29.764c0 2.857 2.02 5.31 4.813 5.845l124.314 23.814c.363.07.736.105 1.104.105.374 0 .746-.036 1.11-.106L255.654 35.61c2.79-.536 4.817-2.988 4.817-5.845 0-2.858-2.026-5.315-4.816-5.85z"/><path id="j" d="M5.917 53.308C2.65 53.308 0 50.642 0 47.353V5.955C0 2.665 2.65 0 5.917 0c3.274 0 5.926 2.666 5.926 5.955v41.4c0 3.288-2.652 5.953-5.926 5.953z"/><path id="k" d="M130.31 11.905H5.92C2.652 11.905 0 9.24 0 5.955 0 2.665 2.65 0 5.922 0H130.31c3.274 0 5.925 2.666 5.925 5.955 0 3.284-2.65 5.95-5.926 5.95z"/></defs></svg>