<svg width="379" height="300" viewBox="0 0 379 300" xmlns="http://www.w3.org/2000/svg" xmlns:xlink="http://www.w3.org/1999/xlink" xmlns:figma="http://www.figma.com/figma/ns"><title>Icon - Counselling</title><desc>Created using Figma</desc><g transform="translate(-471 -973)" figma:type="canvas"><mask id="a"><path d="M471 973h379v300H471V973z" fill="#FFF"/></mask><g figma:type="frame" mask="url(#a)"><use xlink:href="#b" transform="translate(606.68 1006.32)" fill="#8AC054" figma:type="vector"/><use xlink:href="#c" transform="translate(636.014 1037.94)" fill="#79AA41" figma:type="vector"/><use xlink:href="#d" transform="translate(649.42 984)" fill="#9ED36A" figma:type="vector"/><use xlink:href="#e" transform="translate(651.196 1023.78)" fill="#8AC054" figma:type="vector"/><use xlink:href="#f" transform="translate(576.925 1112.89)" fill="#F03F35" figma:type="vector"/><g figma:type="frame"><use xlink:href="#g" transform="translate(521 1173.62)" fill="#EAC6BB" figma:type="vector"/><use xlink:href="#h" transform="translate(604.78 1188.14)" fill="#DBADA2" figma:type="vector"/></g></g></g><defs><path id="b" d="M.128.037S-2.694 44.59 18.13 65.972c12.77 13.11 33.707 13.367 46.788.587 13.05-12.823 13.282-33.82.514-46.93C44.61-1.752.128.037.128.037z"/><path id="c" d="M32.27 29.296c-2.037-3.054-5.005-7-8.828-11.73-6.397-7.91-12.957-15.28-13.256-15.614C9.194.838 7.774.1 6.166.01 2.952-.175.197 2.296.01 5.52c-.085 1.613.48 3.114 1.48 4.23 10.314 11.578 22.1 26.278 23.194 29.718-.137-.433-.29-2.025.78-3.598l9.64 6.578c2.986-4.412-.52-9.674-2.833-13.152z"/><path id="d" d="M89.27 0S32.193 4.477 8.83 34.95C-5.495 53.636-2.023 80.418 16.58 94.81c18.64 14.33 45.34 10.82 59.666-7.86C99.61 56.47 89.27 0 89.27 0z"/><path id="e" d="M56.27 4.884C55.74 1.697 52.73-.45 49.555.08c-.872.147-1.66.486-2.335.953l-.01-.005c-.614.425-15.265 10.623-28.128 28.995C11.475 40.885 6.062 52.38 3 64.18-.86 79.018-.996 94.332 2.587 109.698l11.358-2.672c-5.696-24.42-.83-47.958 14.458-69.966 11.648-16.755 25.28-26.297 25.418-26.39v-.005c1.806-1.248 2.832-3.465 2.447-5.78z"/><path id="f" d="M0 93.958S42.566.528 80.804.002c38.234-.527 80.8 93.956 80.8 93.956H0z"/><path id="g" d="M246.58 12.274c-1.83-.146-3.84-.214-6.037-.214-14.36 0-36.715 3.06-67.35 8.49C169.377 9.64 145.17 4.864 145.17 4.864S92.905 2.007 59.542.19C57.412.07 55.352 0 53.376 0 9.186 0 0 27.67 0 27.67v28.655C.017 72.75 50.503 80.795 50.674 80.83c40.102 7.942 89.4 10.6 89.4 10.6s135.072-53.21 138.62-56.324c3.542-3.114 1.987-20.087-32.113-22.832z"/><path id="h" d="M127.265 0c-10.613 1.407-22.98 3.405-37.126 5.892-1.805.806-3.662 1.63-5.57 2.445C47.51 24.195 21.297 27.523 5.834 27.523 2.608 27.523 0 30.147 0 33.373c0 3.24 2.608 5.85 5.833 5.85 24.118-.002 52.22-6.794 83.502-20.2C108.262 10.91 122.373 2.89 127.265 0z"/></defs></svg>