<svg width="379" height="300" viewBox="0 0 379 300" xmlns="http://www.w3.org/2000/svg" xmlns:xlink="http://www.w3.org/1999/xlink" xmlns:figma="http://www.figma.com/figma/ns"><title>Icon - Performance</title><desc>Created using Figma</desc><g transform="translate(-905 -973)" figma:type="canvas"><mask id="a"><path d="M905 973h379v300H905V973z" fill="#FFF"/></mask><g figma:type="frame" mask="url(#a)"><use xlink:href="#b" transform="translate(1023 1220.27)" fill="#F8F8F8" figma:type="vector"/><use xlink:href="#c" transform="translate(919.747 1161.34)" fill="#F8F8F8" figma:type="vector"/><use xlink:href="#d" transform="translate(905 1102.41)" fill="#F8F8F8" figma:type="vector"/><use xlink:href="#e" transform="translate(934.498 1043.48)" fill="#F8F8F8" figma:type="vector"/><use xlink:href="#f" transform="translate(934.498 1014)" fill="#F03F35" figma:type="vector"/><use xlink:href="#g" transform="translate(934.5 1112.68)" fill="#CCD1D9" figma:type="vector"/><use xlink:href="#g" transform="translate(934.5 1112.68)" fill="#CCD1D9" figma:type="vector"/><use xlink:href="#g" transform="translate(934.5 1112.68)" fill="#CCD1D9" figma:type="vector"/><use xlink:href="#g" transform="translate(934.5 1112.68)" fill="#CCD1D9" figma:type="vector"/><use xlink:href="#g" transform="translate(934.5 1112.68)" fill="#E6E9ED" figma:type="vector"/><use xlink:href="#h" transform="translate(980.27 1014)" fill="#BA3129" figma:type="vector"/><use xlink:href="#i" transform="translate(1117.16 1088.27)" fill="#434A54" figma:type="vector"/><use xlink:href="#j" transform="translate(1129.99 1107.68)" fill="#434A54" figma:type="vector"/><use xlink:href="#k" transform="translate(1142.83 1126.61)" fill="#434A54" figma:type="vector"/><use xlink:href="#l" transform="translate(1214.75 1227.63)" fill="#CCD1D9" figma:type="vector"/><use xlink:href="#m" transform="translate(1185.26 1227.63)" fill="#CCD1D9" figma:type="vector"/><use xlink:href="#n" transform="translate(1155.75 1227.63)" fill="#CCD1D9" figma:type="vector"/><use xlink:href="#o" transform="translate(1126.25 1227.63)" fill="#CCD1D9" figma:type="vector"/><use xlink:href="#p" transform="translate(1096.78 1227.63)" fill="#CCD1D9" figma:type="vector"/><use xlink:href="#q" transform="translate(974.27 1159.68)" fill="#CCD1D9" figma:type="vector"/><use xlink:href="#r" transform="translate(949.574 1145.79)" fill="#CCD1D9" figma:type="vector"/><use xlink:href="#s" transform="translate(1073.04 1215.23)" fill="#CCD1D9" figma:type="vector"/><use xlink:href="#t" transform="translate(1048.35 1201.35)" fill="#CCD1D9" figma:type="vector"/><use xlink:href="#u" transform="translate(1023.66 1187.46)" fill="#CCD1D9" figma:type="vector"/><use xlink:href="#v" transform="translate(998.93 1173.51)" fill="#CCD1D9" figma:type="vector"/></g></g><defs><path id="b" d="M76.848 14.728H7.378c-4.073 0-7.378-3.3-7.378-7.37C0 3.29 3.306 0 7.378 0h69.47c4.062 0 7.368 3.29 7.368 7.36 0 4.066-3.306 7.368-7.368 7.368z"/><path id="c" d="M74.78 14.74H7.377C3.305 14.74 0 11.437 0 7.37S3.306 0 7.378 0h67.4c4.08 0 7.38 3.302 7.38 7.37s-3.3 7.37-7.38 7.37z"/><path id="d" d="M41.587 14.734H7.373C3.3 14.734 0 11.438 0 7.37S3.3 0 7.373 0h34.214c4.072 0 7.373 3.302 7.373 7.37s-3.3 7.364-7.373 7.364z"/><path id="e" d="M37.023 14.733H7.373C3.3 14.733 0 11.437 0 7.37 0 3.3 3.3 0 7.373 0h29.65c4.073 0 7.373 3.302 7.373 7.37 0 4.066-3.3 7.363-7.373 7.363z"/><path id="f" d="M319.23 150.414c-4.516-7.833-15.61-12.764-34.895-15.537-13.547-1.953-28.088-2.363-37.897-2.363-1.308 0-2.463.01-3.468.02l-67.23-99.793c-1.64-2.448-4.6-3.68-7.497-3.123-9.95 1.91-19.543 2.876-28.515 2.876-20.478 0-37.973-4.86-52.007-14.447-10.19-6.965-14.767-14.05-15.026-14.46-2.042-3.484-6.47-4.6-9.983-2.59-.582.33-14.367 8.347-28.924 27.758-8.42 11.226-15.454 24.055-20.904 38.124C6.125 84.33 1.798 103.758.026 124.625c-.243 2.87 1.22 5.632 3.744 7.045l157.97 88.39c1.102.615 2.333.938 3.608.938h147.497c3.446 0 6.438-2.385 7.195-5.75 1.05-4.67 9.97-46.18-.81-64.834z"/><path id="g" d="M320.04 116.572c.485-2.126 2.592-11.923 3.726-23.716H173.254L3.695 0C2.012 8.357.78 17.016.024 25.95c-.242 2.87 1.222 5.63 3.745 7.045l157.97 88.39c1.102.614 2.333.937 3.608.937h147.497c3.445 0 6.438-2.384 7.194-5.75z"/><path id="h" d="M129.97 32.74c-1.643-2.448-4.603-3.68-7.498-3.123-9.95 1.91-19.544 2.876-28.515 2.876-20.478 0-37.973-4.86-52.007-14.447-10.193-6.965-14.768-14.05-15.027-14.46-2.042-3.484-6.47-4.6-9.983-2.59-.416.24-7.578 4.398-16.94 13.84.043.064 41.69 58.34 142.025 35.79L129.97 32.74z"/><path id="i" d="M7.384 22.659c1.145-.002 2.29-.266 3.37-.816l16.69-8.584c.65-.33 1.222-.75 1.718-1.23L21.06 0c-.12.054-.238.102-.367.162L4.003 8.745c-3.62 1.86-5.046 6.3-3.188 9.915 1.32 2.54 3.89 3.998 6.57 3.998z"/><path id="j" d="M7.383 22.772c1.145 0 2.29-.258 3.37-.814l16.692-8.584c.734-.372 1.372-.858 1.912-1.42L21.297 0c-.193.086-.4.173-.604.275L4.003 8.858C.382 10.718-1.044 15.16.814 18.78c1.317 2.536 3.89 3.992 6.568 3.992z"/><path id="k" d="M7.384 22.74c1.134 0 2.29-.26 3.37-.82l16.68-8.58c.714-.355 1.33-.82 1.86-1.348L21.223 0c-.185.075-.358.15-.53.243L4 8.82c-3.62 1.867-5.045 6.313-3.187 9.927 1.32 2.536 3.89 3.992 6.57 3.992z"/><path id="l" d="M0 7.37h14.758c0-4.068-3.306-7.37-7.38-7.37C3.307 0 0 3.302 0 7.37z"/><path id="m" d="M0 7.37h14.746c0-4.068-3.306-7.37-7.38-7.37C3.295 0 0 3.302 0 7.37z"/><path id="n" d="M0 7.37h14.747C14.747 3.302 11.44 0 7.38 0 3.294 0 0 3.302 0 7.37z"/><path id="o" d="M14.757 7.37c0-4.068-3.306-7.37-7.38-7.37C3.306 0 0 3.302 0 7.37h14.757z"/><path id="p" d="M3.07 7.37h11.655C14.715 3.302 11.42 0 7.345 0 3.502 0 .346 2.946 0 6.7c.962.443 2.01.67 3.07.67z"/><path id="q" d="M11.392.95C7.848-1.046 3.35.206 1.345 3.745L0 6.14l12.867 7.197 1.33-2.352c1.998-3.54.744-8.027-2.805-10.035z"/><path id="r" d="M11.435.95C7.885-1.046 3.392.206 1.388 3.745L0 6.205 12.867 13.4l1.367-2.415c2.003-3.54.75-8.038-2.8-10.035z"/><path id="s" d="M11.235.95C7.687-1.046 3.187.206 1.19 3.745L0 5.85l12.866 7.207 1.167-2.072c2.004-3.54.75-8.04-2.798-10.035z"/><path id="t" d="M11.278.95C7.728-1.046 3.23.206 1.23 3.745L0 5.925l12.872 7.196 1.205-2.135c2.003-3.54.745-8.038-2.8-10.035z"/><path id="u" d="M11.316.95C7.766-1.046 3.268.206 1.27 3.745L0 5.99l12.867 7.195 1.248-2.2c1.998-3.55.745-8.04-2.8-10.035z"/><path id="v" d="M11.068.84C7.46-1.048 3.003.355 1.118 3.96L0 6.105l12.872 7.197 1.324-2.525c1.884-3.614.485-8.06-3.128-9.938z"/></defs></svg>