<svg xmlns="http://www.w3.org/2000/svg" width="328" height="75" viewBox="0 0 328 75">
  <g fill="none" fill-rule="evenodd">
    <path fill="#3C3C3C" d="M104.047,40 L104.047,5.7 L112.965,5.7 C121.638,5.7 131.193,10.306 131.193,22.703 C131.193,35.394 121.687,40 112.475,40 L104.047,40 Z M107.673,36.668 L109.682,36.668 C120.266,36.668 127.322,33.483 127.322,23.144 C127.322,13.883 121.687,9.032 112.034,9.032 L107.673,9.032 L107.673,36.668 Z M143.216619,16.088 L139.884619,16.088 L139.884619,40 L143.216619,40 L143.216619,24.026 C144.931619,20.988 146.744619,18.93 149.488619,18.93 C150.419619,18.93 151.007619,19.028 151.742619,19.371 L152.183619,15.696 C151.497619,15.549 150.811619,15.5 150.174619,15.5 C146.842619,15.5 144.539619,17.95 143.216619,20.596 L143.216619,16.088 Z M159.209238,40 L159.209238,35.051 L155.142238,35.051 L155.142238,40 L159.209238,40 Z M199.377476,24.81 L199.377476,21.478 L186.343476,21.478 L186.343476,9.032 L199.377476,9.032 L199.377476,5.7 L182.717476,5.7 L182.717476,40 L186.343476,40 L186.343476,24.81 L199.377476,24.81 Z M217.085096,15.5 C224.190096,15.5 229.139096,21.086 229.139096,28.044 C229.139096,35.002 224.190096,40.588 217.085096,40.588 C209.980096,40.588 205.031096,35.002 205.031096,28.044 C205.031096,21.086 209.980096,15.5 217.085096,15.5 Z M225.709096,28.044 C225.709096,23.046 222.426096,18.538 217.085096,18.538 C211.744096,18.538 208.461096,23.046 208.461096,28.044 C208.461096,33.042 211.744096,37.55 217.085096,37.55 C222.426096,37.55 225.709096,33.042 225.709096,28.044 Z M240.231715,16.088 L236.899715,16.088 L236.899715,40 L240.231715,40 L240.231715,24.026 C241.946715,20.988 243.759715,18.93 246.503715,18.93 C247.434715,18.93 248.022715,19.028 248.757715,19.371 L249.198715,15.696 C248.512715,15.549 247.826715,15.5 247.189715,15.5 C243.857715,15.5 241.554715,17.95 240.231715,20.596 L240.231715,16.088 Z M258.331334,3.25 L258.331334,19.175 C260.144334,16.774 263.084334,15.5 266.024334,15.5 C273.031334,15.5 278.274334,21.135 278.274334,27.946 C278.274334,34.757 272.982334,40.588 265.975334,40.588 C263.280334,40.588 260.389334,39.559 258.331334,37.648 L258.331334,40 L254.999334,40 L254.999334,3.25 L258.331334,3.25 Z M258.331334,23.046 L258.331334,33.777 C260.095334,36.08 263.182334,37.55 265.926334,37.55 C271.120334,37.55 274.844334,33.238 274.844334,28.142 C274.844334,22.997 271.169334,18.538 265.926334,18.538 C262.986334,18.538 259.703334,20.253 258.331334,23.046 Z M306.026953,28.877 L287.161953,28.877 C287.455953,33.483 290.493953,37.746 295.687953,37.746 C298.872953,37.746 301.567953,36.864 303.282953,33.63 L305.634953,35.149 C303.723953,38.726 299.558953,40.588 295.932953,40.588 C288.092953,40.588 283.829953,34.904 283.829953,27.897 C283.829953,20.841 289.023953,15.5 295.540953,15.5 C301.714953,15.5 306.173953,20.743 306.173953,26.672 C306.173953,27.456 306.075953,28.436 306.026953,28.877 Z M302.890953,26.035 C302.694953,22.017 299.607953,18.342 295.540953,18.342 C290.934953,18.342 287.945953,21.576 287.259953,26.035 L302.890953,26.035 Z M326.919572,17.803 C325.057572,16.284 322.852572,15.5 320.353572,15.5 C316.335572,15.5 312.905572,17.803 312.905572,21.919 C312.905572,26.28 316.286572,27.701 319.422572,28.975 C322.117572,30.053 324.665572,31.033 324.665572,33.777 C324.665572,36.521 321.970572,37.746 319.667572,37.746 C317.413572,37.746 315.600572,36.766 314.179572,35.247 L312.170572,37.354 C314.130572,39.51 316.874572,40.588 319.569572,40.588 C323.587572,40.588 327.997572,38.04 327.997572,33.826 C327.997572,29.563 325.106572,27.897 322.166572,26.672 C319.128572,25.398 316.041572,24.467 316.041572,21.625 C316.041572,19.371 318.393572,18.342 320.255572,18.342 C322.019572,18.342 323.783572,19.028 325.106572,20.057 L326.919572,17.803 Z"/>
    <path fill="#727272" d="M109.964,56.119 C109.417997,56.119 108.949002,56.2834984 108.557,56.6125 C108.164998,56.9415016 107.969,57.4209968 107.969,58.051 C107.969,58.3170013 108.024999,58.5864986 108.137,58.8595 C108.249001,59.1325014 108.388999,59.3984987 108.557,59.6575 C108.725001,59.9165013 108.906999,60.1684988 109.103,60.4135 C109.299001,60.6585012 109.480999,60.878999 109.649,61.075 C109.915001,60.9069992 110.184499,60.725001 110.4575,60.529 C110.730501,60.332999 110.978999,60.1125012 111.203,59.8675 C111.427001,59.6224988 111.608999,59.3495015 111.749,59.0485 C111.889001,58.7474985 111.959,58.4150018 111.959,58.051 C111.959,57.4209968 111.763002,56.9415016 111.371,56.6125 C110.978998,56.2834984 110.510003,56.119 109.964,56.119 Z M113.765,68.047 C113.218997,68.7330034 112.568004,69.278998 111.812,69.685 C111.055996,70.091002 110.237004,70.294 109.355,70.294 C108.710997,70.294 108.112503,70.2030009 107.5595,70.021 C107.006497,69.8389991 106.527002,69.5730017 106.121,69.223 C105.714998,68.8729982 105.396501,68.4390026 105.1655,67.921 C104.934499,67.4029974 104.819,66.8010034 104.819,66.115 C104.819,65.5829973 104.930999,65.0930022 105.155,64.645 C105.379001,64.1969978 105.669498,63.7910018 106.0265,63.427 C106.383502,63.0629982 106.778998,62.7340015 107.213,62.44 C107.647002,62.1459985 108.073998,61.8870011 108.494,61.663 C108.283999,61.3969987 108.070501,61.1275014 107.8535,60.8545 C107.636499,60.5814986 107.440501,60.2980015 107.2655,60.004 C107.090499,59.7099985 106.943501,59.4020016 106.8245,59.08 C106.705499,58.7579984 106.646,58.4150018 106.646,58.051 C106.646,57.5889977 106.733499,57.1725019 106.9085,56.8015 C107.083501,56.4304981 107.321498,56.1120013 107.6225,55.846 C107.923502,55.5799987 108.273498,55.3735007 108.6725,55.2265 C109.071502,55.0794993 109.501998,55.006 109.964,55.006 C110.426002,55.006 110.856498,55.0794993 111.2555,55.2265 C111.654502,55.3735007 112.004498,55.5799987 112.3055,55.846 C112.606502,56.1120013 112.844499,56.4304981 113.0195,56.8015 C113.194501,57.1725019 113.282,57.5889977 113.282,58.051 C113.282,58.5130023 113.198001,58.9329981 113.03,59.311 C112.861999,59.6890019 112.641501,60.0319985 112.3685,60.34 C112.095499,60.6480015 111.784002,60.9314987 111.434,61.1905 C111.083998,61.4495013 110.720002,61.6979988 110.342,61.936 L113.618,65.884 C113.800001,65.5199982 113.919,65.1525019 113.975,64.7815 C114.031,64.4104981 114.059,63.9380029 114.059,63.364 L115.382,63.364 C115.382,63.7840021 115.322501,64.3264967 115.2035,64.9915 C115.084499,65.6565033 114.850002,66.3109968 114.5,66.955 L117.02,70 L115.361,70 L113.765,68.047 Z M109.208,62.524 C108.843998,62.720001 108.480002,62.9369988 108.116,63.175 C107.751998,63.4130012 107.423001,63.6859985 107.129,63.994 C106.834999,64.3020015 106.597001,64.6414981 106.415,65.0125 C106.232999,65.3835019 106.142,65.7929978 106.142,66.241 C106.142,66.6750022 106.232999,67.0739982 106.415,67.438 C106.597001,67.8020018 106.838498,68.1169987 107.1395,68.383 C107.440502,68.6490013 107.786998,68.8519993 108.179,68.992 C108.571002,69.1320007 108.976998,69.202 109.397,69.202 C110.153004,69.202 110.828497,68.9955021 111.4235,68.5825 C112.018503,68.1694979 112.525998,67.662003 112.946,67.06 L109.208,62.524 Z M141.636,70 L147.306,55.3 L148.713,55.3 L153.837,70 L152.094,70 L150.981,66.661 L144.513,66.661 L143.253,70 L141.636,70 Z M147.936,57.484 L145.038,65.233 L150.519,65.233 L147.957,57.484 L147.936,57.484 Z M171.248,60.487 C170.45,59.836 169.505,59.5 168.434,59.5 C166.712,59.5 165.242,60.487 165.242,62.251 C165.242,64.12 166.691,64.729 168.035,65.275 C169.19,65.737 170.282,66.157 170.282,67.333 C170.282,68.509 169.127,69.034 168.14,69.034 C167.174,69.034 166.397,68.614 165.788,67.963 L164.927,68.866 C165.767,69.79 166.943,70.252 168.098,70.252 C169.82,70.252 171.71,69.16 171.71,67.354 C171.71,65.527 170.471,64.813 169.211,64.288 C167.909,63.742 166.586,63.343 166.586,62.125 C166.586,61.159 167.594,60.718 168.392,60.718 C169.148,60.718 169.904,61.012 170.471,61.453 L171.248,60.487 Z M190.066,60.487 C189.268,59.836 188.323,59.5 187.252,59.5 C185.53,59.5 184.06,60.487 184.06,62.251 C184.06,64.12 185.509,64.729 186.853,65.275 C188.008,65.737 189.1,66.157 189.1,67.333 C189.1,68.509 187.945,69.034 186.958,69.034 C185.992,69.034 185.215,68.614 184.606,67.963 L183.745,68.866 C184.585,69.79 185.761,70.252 186.916,70.252 C188.638,70.252 190.528,69.16 190.528,67.354 C190.528,65.527 189.289,64.813 188.029,64.288 C186.727,63.742 185.404,63.343 185.404,62.125 C185.404,61.159 186.412,60.718 187.21,60.718 C187.966,60.718 188.722,61.012 189.289,61.453 L190.066,60.487 Z M207.539999,59.5 C210.584999,59.5 212.705999,61.894 212.705999,64.876 C212.705999,67.858 210.584999,70.252 207.539999,70.252 C204.494999,70.252 202.373999,67.858 202.373999,64.876 C202.373999,61.894 204.494999,59.5 207.539999,59.5 Z M211.235999,64.876 C211.235999,62.734 209.828999,60.802 207.539999,60.802 C205.250999,60.802 203.843999,62.734 203.843999,64.876 C203.843999,67.018 205.250999,68.95 207.539999,68.95 C209.828999,68.95 211.235999,67.018 211.235999,64.876 Z M231.733999,68.278 C231.229999,68.656 230.221999,68.95 229.570999,68.95 C227.197999,68.95 225.727999,67.186 225.727999,64.876 C225.727999,62.671 227.197999,60.802 229.528999,60.802 C230.221999,60.802 231.103999,61.012 231.670999,61.39 L232.195999,60.193 C231.460999,59.773 230.578999,59.5 229.633999,59.5 C226.504999,59.5 224.257999,61.873 224.257999,64.876 C224.257999,67.942 226.483999,70.252 229.675999,70.252 C230.746999,70.252 231.628999,69.937 232.468999,69.37 L231.733999,68.278 Z M245.973999,70 L245.973999,59.752 L244.545999,59.752 L244.545999,70 L245.973999,70 Z M245.973999,57.463 L245.973999,55.489 L244.545999,55.489 L244.545999,57.463 L245.973999,57.463 Z M265.673999,70 L265.568999,68.803 C264.581999,69.874 263.384999,70.252 262.208999,70.252 C260.318999,70.252 258.659999,69.139 258.659999,67.207 C258.659999,64.687 261.011999,63.7 263.195999,63.7 C263.888999,63.7 264.602999,63.784 265.526999,64.015 L265.526999,63.448 C265.526999,61.747 264.686999,60.802 262.901999,60.802 C261.704999,60.802 260.360999,61.243 259.562999,61.684 L259.079999,60.403 C260.024999,59.962 261.620999,59.5 262.964999,59.5 C266.009999,59.5 266.954999,61.096 266.954999,63.742 L266.954999,70 L265.673999,70 Z M265.526999,65.17 C264.644999,64.96 263.867999,64.876 263.132999,64.876 C261.725999,64.876 260.087999,65.443 260.087999,67.039 C260.087999,68.278 261.053999,69.076 262.250999,69.076 C263.426999,69.076 264.560999,68.467 265.526999,67.543 L265.526999,65.17 Z M284.869999,61.054 L284.869999,59.752 L281.887999,59.752 L281.887999,57.19 L280.459999,57.19 L280.459999,59.752 L279.010999,59.752 L279.010999,61.054 L280.459999,61.054 L280.459999,66.871 C280.459999,68.992 281.446999,70.189 283.441999,70.189 C284.050999,70.189 284.617999,70 285.079999,69.748 L284.722999,68.614 C284.260999,68.782 283.840999,68.887 283.462999,68.887 C282.517999,68.887 281.887999,68.551 281.887999,66.703 L281.887999,61.054 L284.869999,61.054 Z M305.514999,65.233 L297.429999,65.233 C297.555999,67.207 298.857999,69.034 301.083999,69.034 C302.448999,69.034 303.603999,68.656 304.338999,67.27 L305.346999,67.921 C304.527999,69.454 302.742999,70.252 301.188999,70.252 C297.828999,70.252 296.001999,67.816 296.001999,64.813 C296.001999,61.789 298.227999,59.5 301.020999,59.5 C303.666999,59.5 305.577999,61.747 305.577999,64.288 C305.577999,64.624 305.535999,65.044 305.514999,65.233 Z M304.170999,64.015 C304.086999,62.293 302.763999,60.718 301.020999,60.718 C299.046999,60.718 297.765999,62.104 297.471999,64.015 L304.170999,64.015 Z M323.639999,60.487 C322.841999,59.836 321.896999,59.5 320.825999,59.5 C319.103999,59.5 317.633999,60.487 317.633999,62.251 C317.633999,64.12 319.082999,64.729 320.426999,65.275 C321.581999,65.737 322.673999,66.157 322.673999,67.333 C322.673999,68.509 321.518999,69.034 320.531999,69.034 C319.565999,69.034 318.788999,68.614 318.179999,67.963 L317.318999,68.866 C318.158999,69.79 319.334999,70.252 320.489999,70.252 C322.211999,70.252 324.101999,69.16 324.101999,67.354 C324.101999,65.527 322.862999,64.813 321.602999,64.288 C320.300999,63.742 318.977999,63.343 318.977999,62.125 C318.977999,61.159 319.985999,60.718 320.783999,60.718 C321.539999,60.718 322.295999,61.012 322.862999,61.453 L323.639999,60.487 Z"/>
    <path fill="#F03F35" d="M3.91248679,0.717077493 C19.2286471,5.01425932 50.7743324,15.0256738 54.7985409,23.2685543 C59.8688093,33.6541036 32.3589601,56.2627816 29.9394821,65.7139706 C29.024211,69.2892873 30.1005796,72.3472579 32.0607557,74.8780488 L6.99840624,74.8780488 C3.1332932,74.8780488 0,71.7441171 0,67.8841586 L0,6.99389021 C0,4.23988511 1.59797792,1.85766306 3.91248679,0.717077493 Z M39.1613761,1.42108547e-14 L70.1372722,1.42108547e-14 C74.0023852,1.42108547e-14 77.1356784,3.13393166 77.1356784,6.99389021 L77.1356784,67.8841586 C77.1356784,71.7467775 73.9922396,74.8780488 70.1372722,74.8780488 L54.8570181,74.8780488 C49.458596,73.147981 40.7507017,68.9997129 42.8995094,60.6058415 C45.3189874,51.1546525 74.1291862,27.5975079 69.0589178,17.2119586 C65.8126883,10.5626307 51.3014509,4.25928624 39.1613761,1.26565425e-14 Z"/>
  </g>
</svg>
